<?xml version="1.0" encoding="UTF-8" ?>
<!DOCTYPE svg PUBLIC "-//W3C//DTD SVG 1.1//EN" "http://www.w3.org/Graphics/SVG/1.1/DTD/svg11.dtd">
<svg width="960pt" height="289pt" viewBox="0 0 960 289" version="1.1" xmlns="http://www.w3.org/2000/svg">
<g id="#00e5ffff">
</g>
<g id="#414243ff">
<path fill="#414243" opacity="1.00" d=" M 326.07 21.40 C 329.50 21.37 332.93 21.39 336.36 21.49 C 336.45 96.32 336.39 171.14 336.39 245.97 C 332.90 246.54 329.36 246.46 325.85 246.30 C 325.62 177.53 325.81 108.77 325.75 40.00 C 325.84 33.80 325.47 27.58 326.07 21.40 Z" />
</g>
<g id="#aa00ffff">
<path fill="#aa00ff" opacity="1.00" d=" M 116.54 23.15 C 130.01 19.61 144.37 21.76 157.27 26.51 C 177.75 34.34 195.12 48.24 211.31 62.70 C 225.65 76.03 238.75 90.67 250.65 106.23 C 257.84 116.21 265.05 126.28 270.21 137.50 C 277.13 150.80 281.74 166.08 279.03 181.14 C 275.94 193.62 266.22 203.21 255.53 209.69 C 239.47 219.90 221.28 225.83 203.47 232.12 C 193.41 235.31 183.32 238.38 173.25 241.50 C 149.39 248.83 125.73 257.38 100.96 261.17 C 88.79 262.51 75.79 261.58 65.09 255.11 C 51.44 246.87 42.36 233.02 35.85 218.81 C 29.99 204.80 26.59 189.83 25.20 174.73 C 23.41 166.18 25.36 157.57 25.72 149.00 C 27.87 127.08 36.85 106.59 47.23 87.43 C 58.35 68.26 72.11 50.22 89.87 36.74 C 97.82 30.61 106.89 25.95 116.54 23.15 M 135.46 79.20 C 119.63 86.99 108.28 102.82 105.24 120.12 C 102.92 133.35 104.27 147.47 110.49 159.50 C 118.59 175.89 134.73 187.99 152.77 191.04 C 167.07 193.08 182.29 191.28 194.84 183.76 C 194.25 175.07 192.16 166.58 190.57 158.04 C 181.99 160.39 173.14 163.80 164.11 161.74 C 156.20 160.76 148.86 156.02 145.11 148.94 C 140.74 140.62 140.62 130.64 142.65 121.63 C 144.54 113.03 151.34 105.57 160.07 103.71 C 170.33 100.66 180.92 104.06 190.56 107.66 C 192.01 98.89 194.07 90.18 194.77 81.30 C 185.71 75.31 174.67 73.45 164.03 72.66 C 154.22 72.75 144.22 74.60 135.46 79.20 Z" />
</g>
<g id="#fefffeff">
<path fill="#fefffe" opacity="1.00" d=" M 135.46 79.20 C 144.22 74.60 154.22 72.75 164.03 72.66 C 174.67 73.45 185.71 75.31 194.77 81.30 C 194.07 90.18 192.01 98.89 190.56 107.66 C 180.92 104.06 170.33 100.66 160.07 103.71 C 151.34 105.57 144.54 113.03 142.65 121.63 C 140.62 130.64 140.74 140.62 145.11 148.94 C 148.86 156.02 156.20 160.76 164.11 161.74 C 173.14 163.80 181.99 160.39 190.57 158.04 C 192.16 166.58 194.25 175.07 194.84 183.76 C 182.29 191.28 167.07 193.08 152.77 191.04 C 134.73 187.99 118.59 175.89 110.49 159.50 C 104.27 147.47 102.92 133.35 105.24 120.12 C 108.28 102.82 119.63 86.99 135.46 79.20 Z" />
<path fill="#fefffe" opacity="1.00" d=" M 398.04 97.82 C 409.04 92.05 421.83 94.89 433.46 96.74 C 433.48 99.03 433.47 101.32 433.46 103.61 C 424.80 102.87 416.08 101.53 407.39 102.70 C 402.58 103.77 399.02 107.94 397.58 112.51 C 394.93 120.40 395.62 128.84 395.53 137.02 C 395.43 143.42 396.12 150.10 399.35 155.76 C 401.12 158.94 404.54 160.98 408.10 161.45 C 416.56 162.22 425.04 161.51 433.42 160.37 C 433.46 162.66 433.50 164.95 433.54 167.25 C 424.29 169.37 414.63 170.36 405.22 168.91 C 398.77 167.82 392.89 163.69 390.35 157.57 C 385.38 146.49 386.29 133.99 386.63 122.16 C 387.63 113.26 389.47 102.60 398.04 97.82 Z" />
<path fill="#fefffe" opacity="1.00" d=" M 619.46 95.57 C 637.11 95.57 654.76 95.43 672.41 95.64 C 672.45 98.20 672.44 100.76 672.39 103.33 C 665.08 103.55 657.78 103.28 650.48 103.48 C 650.25 124.99 650.41 146.50 650.40 168.01 C 647.48 168.54 644.51 168.52 641.59 168.03 C 641.59 146.52 641.72 125.00 641.53 103.49 C 634.21 103.29 626.89 103.52 619.57 103.36 C 619.49 100.76 619.46 98.17 619.46 95.57 Z" />
<path fill="#fefffe" opacity="1.00" d=" M 700.30 94.74 C 709.76 93.67 720.94 94.79 727.54 102.46 C 733.01 109.32 734.63 118.45 734.66 127.01 C 734.78 138.03 735.44 149.85 729.61 159.70 C 725.02 167.32 715.34 169.67 707.01 169.53 C 698.91 169.84 689.73 168.32 684.31 161.70 C 678.19 154.33 677.28 144.20 677.34 134.99 C 677.10 124.52 677.36 113.29 683.16 104.16 C 686.89 98.34 693.72 95.66 700.30 94.74 M 698.49 102.81 C 692.82 104.29 689.05 109.51 687.79 115.01 C 685.73 123.50 685.26 132.39 686.32 141.06 C 686.76 147.59 688.20 155.03 693.91 159.05 C 698.52 162.55 704.61 161.71 710.03 161.70 C 715.59 161.75 721.25 158.51 723.08 153.08 C 726.92 142.56 726.62 131.00 725.24 120.04 C 724.26 114.57 722.71 108.53 717.97 105.09 C 712.39 101.02 704.90 102.16 698.49 102.81 Z" />
<path fill="#fefffe" opacity="1.00" d=" M 446.37 95.76 C 455.25 95.28 464.14 95.68 473.02 95.52 C 480.22 95.28 488.16 97.29 492.87 103.10 C 497.43 109.22 496.93 117.36 496.22 124.55 C 495.31 131.46 489.62 136.04 484.03 139.39 C 487.67 149.30 493.57 158.27 496.85 168.32 C 493.91 168.41 490.97 168.41 488.04 168.36 C 483.19 159.28 479.51 149.62 474.54 140.61 C 467.92 140.56 461.29 140.49 454.67 140.65 C 454.46 149.89 454.80 159.14 454.50 168.38 C 451.77 168.40 449.06 168.37 446.35 168.25 C 446.30 144.09 446.26 119.92 446.37 95.76 M 454.67 103.47 C 454.58 113.43 454.52 123.38 454.71 133.33 C 461.46 133.50 468.22 133.63 474.96 133.36 C 480.82 132.98 486.76 128.92 487.52 122.79 C 487.80 117.80 488.48 112.08 485.11 107.91 C 483.02 105.04 479.57 103.39 476.05 103.43 C 468.92 103.23 461.79 103.27 454.67 103.47 Z" />
<path fill="#fefffe" opacity="1.00" d=" M 501.21 95.62 C 504.13 95.53 507.06 95.55 509.99 95.61 C 516.39 106.42 521.84 117.75 527.84 128.78 C 534.81 118.33 539.19 106.30 546.20 95.88 C 549.03 95.19 551.99 95.61 554.87 95.63 C 553.68 100.36 550.80 104.35 548.54 108.60 C 543.94 116.95 539.41 125.34 534.72 133.64 C 533.67 135.63 532.42 137.67 532.47 140.00 C 532.34 149.44 532.64 158.89 532.35 168.33 C 529.47 168.39 526.59 168.39 523.73 168.32 C 523.45 158.87 523.73 149.43 523.62 139.99 C 523.71 137.39 522.32 135.13 521.16 132.92 C 516.40 124.29 511.54 115.71 506.82 107.05 C 504.82 103.31 502.32 99.77 501.21 95.62 Z" />
<path fill="#fefffe" opacity="1.00" d=" M 565.24 96.42 C 569.99 94.77 575.09 95.79 580.00 95.55 C 589.00 95.83 598.88 94.10 606.93 99.20 C 613.77 103.63 615.42 112.41 615.48 119.99 C 615.18 127.76 612.92 136.64 605.66 140.76 C 595.94 146.19 584.41 143.84 573.81 144.35 C 573.35 152.28 573.76 160.23 573.57 168.17 C 570.86 168.36 568.15 168.41 565.44 168.41 C 565.14 144.42 565.52 120.41 565.24 96.42 M 573.57 103.45 C 573.67 114.42 573.52 125.40 573.66 136.37 C 580.43 136.53 587.22 136.55 594.00 136.44 C 599.08 136.45 603.56 132.75 605.12 128.01 C 606.93 122.53 606.98 116.35 605.17 110.86 C 603.75 106.56 599.54 103.44 595.00 103.44 C 587.85 103.25 580.71 103.28 573.57 103.45 Z" />
<path fill="#fefffe" opacity="1.00" d=" M 784.73 95.52 C 790.48 95.58 796.24 95.42 802.00 95.67 C 804.40 102.33 805.92 109.26 807.85 116.07 C 811.17 128.39 814.67 140.67 817.98 153.00 C 819.30 158.11 821.10 163.12 821.83 168.37 C 819.19 168.39 816.56 168.38 813.93 168.39 C 811.47 162.57 810.55 156.26 808.30 150.37 C 798.14 150.26 787.97 150.18 777.80 150.40 C 775.70 156.33 774.78 162.63 772.25 168.42 C 769.59 168.39 766.94 168.37 764.29 168.31 C 768.67 150.54 773.86 132.97 778.62 115.29 C 780.66 108.71 781.70 101.76 784.73 95.52 M 789.34 107.44 C 786.38 119.09 782.54 130.51 780.02 142.26 C 788.68 142.50 797.36 142.47 806.02 142.28 C 803.87 130.72 799.91 119.57 797.07 108.17 C 796.17 106.09 796.15 102.09 792.99 102.52 C 790.33 102.33 790.00 105.57 789.34 107.44 Z" />
<path fill="#fefffe" opacity="1.00" d=" M 833.25 96.39 C 836.70 95.16 840.40 95.55 844.00 95.53 C 850.35 95.63 856.70 95.41 863.05 95.60 C 869.94 95.99 877.54 98.72 880.94 105.18 C 884.45 111.95 884.40 120.24 882.25 127.41 C 880.65 133.01 875.64 136.36 870.99 139.28 C 874.23 149.38 880.44 158.24 883.81 168.32 C 880.84 168.40 877.88 168.41 874.93 168.38 C 870.06 159.31 866.33 149.68 861.46 140.61 C 854.87 140.54 848.27 140.50 841.68 140.65 C 841.43 149.88 841.80 159.12 841.49 168.35 C 838.80 168.37 836.12 168.38 833.44 168.38 C 833.13 144.39 833.52 120.39 833.25 96.39 M 841.58 103.46 C 841.68 113.43 841.48 123.41 841.69 133.38 C 848.12 133.51 854.56 133.56 860.99 133.44 C 865.34 133.11 870.30 131.74 872.58 127.65 C 875.10 123.63 874.70 118.64 874.42 114.12 C 873.97 108.35 868.86 103.31 862.99 103.41 C 855.85 103.28 848.71 103.25 841.58 103.46 Z" />
<path fill="#fefffe" opacity="1.00" d=" M 746.52 156.33 C 749.46 156.38 752.41 156.42 755.36 156.50 C 755.49 160.43 755.49 164.36 755.34 168.29 C 752.32 168.40 749.31 168.41 746.31 168.28 C 746.19 164.29 746.11 160.30 746.52 156.33 Z" />
</g>
</svg>
